<svg width="40" height="40" viewBox="0 0 40 40" fill="none" xmlns="http://www.w3.org/2000/svg">
<path d="M20 0C9.03226 0 0 8.90322 0 20C0 28.7742 5.74194 36.2581 13.7419 38.9677C14.7742 39.1613 15.0968 38.5161 15.0968 38.0645C15.0968 37.6129 15.0968 36.3226 15.0323 34.5806C9.48387 35.871 8.32258 31.871 8.32258 31.871C7.41935 29.6129 6.06452 28.9677 6.06452 28.9677C4.25806 27.6774 6.12903 27.6774 6.12903 27.6774C8.12903 27.7419 9.22581 29.7419 9.22581 29.7419C10.9677 32.8387 13.9355 31.9355 15.0323 31.3548C15.2258 30.0645 15.7419 29.1613 16.3226 28.6452C11.9355 28.1935 7.22581 26.4516 7.22581 18.8387C7.22581 16.6452 8.06452 14.9032 9.29032 13.5484C9.09677 13.0968 8.3871 11.0323 9.48387 8.25806C9.48387 8.25806 11.2258 7.74193 15.0323 10.3226C16.6452 9.87097 18.3226 9.6129 20.0645 9.6129C21.8064 9.6129 23.5484 9.80645 25.0968 10.3226C28.9032 7.80645 30.5806 8.25806 30.5806 8.25806C31.6774 10.9677 31.0323 13.0968 30.7742 13.5484C32.0645 14.9032 32.8387 16.7097 32.8387 18.8387C32.8387 26.4516 28.129 28.1935 23.7419 28.6452C24.4516 29.2903 25.0968 30.5806 25.0968 32.3871C25.0968 35.0968 25.0323 37.2258 25.0323 37.871C25.0323 38.3871 25.4194 38.9677 26.3871 38.7742C34.2581 36.129 40 28.7097 40 19.871C39.9355 8.90322 30.9677 0 20 0Z" fill="#F0F0F0"/>
</svg>
