<svg width="40" height="40" viewBox="0 0 40 40" fill="none" xmlns="http://www.w3.org/2000/svg">
<path fill-rule="evenodd" clip-rule="evenodd" d="M26.4645 6.46448C28.417 4.51185 31.5827 4.51185 33.5355 6.46448C35.488 8.41708 35.488 11.5829 33.5355 13.5355L26.0355 21.0355C24.0827 22.9882 20.917 22.9882 18.9644 21.0355C17.9881 20.0593 16.4052 20.0593 15.4289 21.0355C14.4526 22.0118 14.4526 23.5947 15.4289 24.571C19.3341 28.4762 25.6657 28.4762 29.571 24.571L37.071 17.0711C40.9762 13.1658 40.9762 6.83418 37.071 2.92893C33.1657 -0.976299 26.8342 -0.976299 22.929 2.92893L19.1789 6.67893C18.2026 7.65525 18.2026 9.23815 19.1789 10.2145C20.1552 11.1908 21.738 11.1908 22.7145 10.2145L26.4645 6.46448ZM13.9645 18.9645C15.9171 17.0119 19.0829 17.0119 21.0355 18.9645C22.0117 19.9408 23.5947 19.9408 24.571 18.9645C25.5475 17.9882 25.5475 16.4053 24.571 15.4289C20.6657 11.5237 14.3342 11.5237 10.4289 15.4289L2.92892 22.929C-0.976306 26.8343 -0.976306 33.1657 2.92892 37.071C6.83417 40.9762 13.1658 40.9762 17.0711 37.071L20.821 33.321C21.7975 32.3447 21.7975 30.7618 20.821 29.7855C19.8447 28.8093 18.2618 28.8093 17.2855 29.7855L13.5355 33.5355C11.5829 35.4882 8.41709 35.4882 6.46447 33.5355C4.51184 31.583 4.51184 28.417 6.46447 26.4645L13.9645 18.9645Z" fill="#585757"/>
</svg>
