<svg width="40" height="41" viewBox="0 0 40 41" fill="none" xmlns="http://www.w3.org/2000/svg">
<path d="M37.204 0H2.91669C1.29631 0 0 1.29631 0 2.91669V37.2688C0 38.8244 1.29631 40.1855 2.91669 40.1855H37.0744C38.6947 40.1855 39.9911 38.8892 39.9911 37.2688V2.85187C40.1207 1.29631 38.8244 0 37.204 0ZM11.8612 34.1577H5.96301V15.0372H11.8612V34.1577ZM8.8797 12.3797C6.93524 12.3797 5.44449 10.8242 5.44449 8.94452C5.44449 7.06487 7.00005 5.5093 8.8797 5.5093C10.7593 5.5093 12.3149 7.06487 12.3149 8.94452C12.3149 10.8242 10.889 12.3797 8.8797 12.3797ZM34.2225 34.1577H28.3243V24.8891C28.3243 22.6854 28.2595 19.7687 25.2132 19.7687C22.102 19.7687 21.6483 22.2317 21.6483 24.6946V34.1577H15.7501V15.0372H21.5187V17.6946H21.5835C22.4261 16.139 24.3057 14.5834 27.2224 14.5834C33.2503 14.5834 34.3521 18.4724 34.3521 23.7872V34.1577H34.2225Z" fill="#F0F0F0"/>
</svg>
